<svg viewBox="0 0 24 24" fill="none" xmlns="http://www.w3.org/2000/svg">
  <path d="M17.5 9C16.1 9 15 10.1 15 11.5V16.5C15 17.9 16.1 19 17.5 19S20 17.9 20 16.5V11.5C20 10.1 18.9 9 17.5 9Z" fill="#3DDC84"/>
  <path d="M6.5 9C5.1 9 4 10.1 4 11.5V16.5C4 17.9 5.1 19 6.5 19S9 17.9 9 16.5V11.5C9 10.1 7.9 9 6.5 9Z" fill="#3DDC84"/>
  <path d="M9 11.5V16.5C9 17.9 10.1 19 11.5 19H12.5C13.9 19 15 17.9 15 16.5V11.5C15 10.1 13.9 9 12.5 9H11.5C10.1 9 9 10.1 9 11.5Z" fill="#3DDC84"/>
  <path d="M10 6L11 4.5L13 4.5L14 6C14.8 6.3 15.5 6.8 16 7.5H8C8.5 6.8 9.2 6.3 10 6Z" fill="#3DDC84"/>
  <circle cx="10" cy="5.5" r="0.5" fill="#FFF"/>
  <circle cx="14" cy="5.5" r="0.5" fill="#FFF"/>
</svg>