<svg viewBox="0 0 24 24" fill="none" xmlns="http://www.w3.org/2000/svg">
  <circle cx="12" cy="12" r="10" fill="#4285F4"/>
  <circle cx="12" cy="12" r="6" fill="#FFF"/>
  <circle cx="12" cy="12" r="3" fill="#4285F4"/>
  <path d="M12 2C16.5 2 20.5 4.5 21.5 8H12V12L6.5 20.5C4 18.5 2.5 15.5 2.5 12C2.5 6.5 6.5 2 12 2Z" fill="#EA4335"/>
  <path d="M21.5 8C21.8 9.2 22 10.6 22 12C22 17.5 18 21.5 12.5 22L12 12H21.5Z" fill="#FBBC04"/>
  <path d="M12.5 22C8 21.8 4.2 19 2.8 15L12 12L12.5 22Z" fill="#34A853"/>
</svg>