<svg width="64" height="64" viewBox="0 0 64 64" fill="none" xmlns="http://www.w3.org/2000/svg">
  <!-- Docker whale logo -->
  <g transform="translate(32,32)">
    <!-- Containers on whale -->
    <rect x="-18" y="-8" width="4" height="4" fill="#2496ED" rx="0.5"/>
    <rect x="-12" y="-8" width="4" height="4" fill="#2496ED" rx="0.5"/>
    <rect x="-6" y="-8" width="4" height="4" fill="#2496ED" rx="0.5"/>
    <rect x="0" y="-8" width="4" height="4" fill="#2496ED" rx="0.5"/>
    <rect x="6" y="-8" width="4" height="4" fill="#2496ED" rx="0.5"/>
    
    <rect x="-12" y="-14" width="4" height="4" fill="#2496ED" rx="0.5"/>
    <rect x="-6" y="-14" width="4" height="4" fill="#2496ED" rx="0.5"/>
    <rect x="0" y="-14" width="4" height="4" fill="#2496ED" rx="0.5"/>
    
    <rect x="-6" y="-20" width="4" height="4" fill="#2496ED" rx="0.5"/>
    
    <!-- Whale body -->
    <path d="M-20 -4C-20 -4 -22 2 -18 8C-16 12 -8 16 8 16C18 16 24 12 26 8C28 4 26 0 24 -2C22 -4 18 -4 12 -4L-20 -4Z" fill="#2496ED"/>
    
    <!-- Whale tail -->
    <path d="M-20 -4C-24 -4 -26 -2 -26 0C-26 2 -24 4 -22 4C-22 2 -21 0 -20 -2L-20 -4Z" fill="#2496ED"/>
    
    <!-- Water waves -->
    <path d="M-28 12C-24 14 -20 12 -16 14C-12 16 -8 14 -4 16C0 18 4 16 8 18C12 20 16 18 20 20C24 22 28 20 30 22" stroke="#87CEEB" stroke-width="2" fill="none"/>
    <path d="M-28 16C-24 18 -20 16 -16 18C-12 20 -8 18 -4 20C0 22 4 20 8 22C12 24 16 22 20 24C24 26 28 24 30 26" stroke="#87CEEB" stroke-width="1.5" fill="none"/>
    
    <!-- Whale eye -->
    <circle cx="8" cy="4" r="2" fill="#FFFFFF"/>
    <circle cx="8" cy="4" r="1" fill="#000000"/>
  </g>
</svg>