<svg width="64" height="64" viewBox="0 0 64 64" fill="none" xmlns="http://www.w3.org/2000/svg">
  <!-- FastAPI lightning bolt logo -->
  <g transform="translate(32,32)">
    <!-- Lightning bolt -->
    <path d="M-8 -24L8 -4L-2 -4L8 24L-8 4L2 4L-8 -24Z" fill="#009688"/>
    
    <!-- Inner highlight -->
    <path d="M-6 -20L6 -6L-1 -6L6 20L-6 6L1 6L-6 -20Z" fill="#00BCD4"/>
    
    <!-- API text (stylized) -->
    <g transform="translate(12,0) scale(0.6)">
      <!-- A -->
      <path d="M-6 8L-4 2L-2 8L-6 8Z M-5 4L-3 4" stroke="#FFFFFF" stroke-width="1.5" fill="none"/>
      <!-- P -->
      <path d="M0 8L0 -2L4 -2C5 -2 6 -1 6 0C6 1 5 2 4 2L0 2" stroke="#FFFFFF" stroke-width="1.5" fill="none"/>
      <!-- I -->
      <path d="M8 8L8 -2" stroke="#FFFFFF" stroke-width="1.5" fill="none"/>
    </g>
    
    <!-- Outer glow effect -->
    <circle cx="0" cy="0" r="28" fill="none" stroke="#009688" stroke-width="0.5" opacity="0.3"/>
  </g>
</svg>