<svg viewBox="0 0 24 24" fill="none" xmlns="http://www.w3.org/2000/svg">
  <rect x="2" y="2" width="20" height="20" rx="2" fill="#F7DF1E"/>
  <path d="M7.5 18.5C7.5 19.3 8.1 20 9 20C9.9 20 10.5 19.5 10.5 18.7V12.5H9V18.5C9 18.8 8.8 19 8.5 19C8.2 19 8 18.8 8 18.5H7.5ZM12 18.8C12 19.8 12.8 20.5 14 20.5C15.2 20.5 16 19.8 16 18.8C16 17.8 15.2 17.1 14 17.1C13.2 17.1 12.8 16.7 12.8 16.2C12.8 15.7 13.2 15.3 13.8 15.3C14.4 15.3 14.7 15.6 14.8 16H15.8C15.7 15.1 15 14.5 13.8 14.5C12.6 14.5 11.8 15.2 11.8 16.2C11.8 17.2 12.6 17.9 13.8 17.9C14.6 17.9 15 18.3 15 18.8C15 19.3 14.6 19.7 14 19.7C13.4 19.7 13 19.3 12.9 18.8H12Z" fill="#000"/>
</svg>