<svg viewBox="0 0 24 24" fill="none" xmlns="http://www.w3.org/2000/svg">
  <!-- Apache Kafka - Data Streaming Platform -->
  
  <!-- Background circle for contrast -->
  <circle cx="12" cy="12" r="10" fill="#231F20" opacity="0.95"/>
  
  <!-- Multiple data streams flowing from left to right -->
  <path d="M4 8 Q8 6 12 8 Q16 10 20 8" stroke="#FF6600" stroke-width="1.5" fill="none" stroke-linecap="round"/>
  <circle cx="6" cy="7.5" r="1" fill="#FF6600"/>
  <circle cx="10" cy="7.8" r="0.8" fill="#FF9900"/>
  <circle cx="14" cy="8.8" r="0.6" fill="#FFCC00"/>
  <circle cx="18" cy="8.2" r="0.4" fill="#FFE066"/>
  
  <path d="M4 12 Q8 10 12 12 Q16 14 20 12" stroke="#FF6600" stroke-width="1.8" fill="none" stroke-linecap="round"/>
  <circle cx="6" cy="11.5" r="1.2" fill="#FF6600"/>
  <circle cx="10" cy="11.8" r="1" fill="#FF9900"/>
  <circle cx="14" cy="12.8" r="0.8" fill="#FFCC00"/>
  <circle cx="18" cy="12.2" r="0.6" fill="#FFE066"/>
  
  <path d="M4 16 Q8 14 12 16 Q16 18 20 16" stroke="#FF6600" stroke-width="1.3" fill="none" stroke-linecap="round"/>
  <circle cx="6" cy="15.5" r="0.8" fill="#FF6600"/>
  <circle cx="10" cy="15.8" r="0.6" fill="#FF9900"/>
  <circle cx="14" cy="16.8" r="0.5" fill="#FFCC00"/>
  <circle cx="18" cy="16.2" r="0.3" fill="#FFE066"/>
  
  <!-- Central processing node -->
  <circle cx="12" cy="12" r="1.5" fill="#FFFFFF"/>
  <circle cx="12" cy="12" r="1" fill="#FF6600"/>
  
  <!-- Small connection indicators -->
  <rect x="3" y="11" width="1" height="2" rx="0.5" fill="#CCCCCC"/>
  <rect x="20" y="11" width="1" height="2" rx="0.5" fill="#CCCCCC"/>
</svg>