<svg viewBox="0 0 24 24" fill="none" xmlns="http://www.w3.org/2000/svg">
  <circle cx="12" cy="12" r="10" fill="#412991"/>
  <path d="M12 4C14.5 4 16.8 5.2 18.2 7.2C19.6 9.2 20 11.8 19.2 14.2C18.4 16.6 16.6 18.4 14.2 19.2C11.8 20 9.2 19.6 7.2 18.2C5.2 16.8 4 14.5 4 12C4 9.5 5.2 7.2 7.2 5.8C9.2 4.4 11.8 4 14.2 4.8C16.6 5.6 18.4 7.4 19.2 9.8" stroke="#FFF" stroke-width="1" fill="none"/>
  <circle cx="12" cy="8" r="1.5" fill="#FFF"/>
  <circle cx="16" cy="12" r="1.5" fill="#FFF"/>
  <circle cx="12" cy="16" r="1.5" fill="#FFF"/>
  <circle cx="8" cy="12" r="1.5" fill="#FFF"/>
</svg>