<svg viewBox="0 0 24 24" fill="none" xmlns="http://www.w3.org/2000/svg">
  <path d="M12 2C13.2 2 14.2 2.3 15 2.9C15.8 3.5 16.5 4.4 16.9 5.5C17.3 6.6 17.3 7.8 16.9 8.9C16.5 10 15.8 10.9 15 11.5L15 12.5C15.8 13.1 16.5 14 16.9 15.1C17.3 16.2 17.3 17.4 16.9 18.5C16.5 19.6 15.8 20.5 15 21.1C14.2 21.7 13.2 22 12 22C10.8 22 9.8 21.7 9 21.1C8.2 20.5 7.5 19.6 7.1 18.5C6.7 17.4 6.7 16.2 7.1 15.1C7.5 14 8.2 13.1 9 12.5L9 11.5C8.2 10.9 7.5 10 7.1 8.9C6.7 7.8 6.7 6.6 7.1 5.5C7.5 4.4 8.2 3.5 9 2.9C9.8 2.3 10.8 2 12 2ZM12 4C11.3 4 10.7 4.2 10.2 4.6C9.7 5 9.3 5.6 9.1 6.3C8.9 7 8.9 7.7 9.1 8.4C9.3 9.1 9.7 9.7 10.2 10.1L12 11.3L13.8 10.1C14.3 9.7 14.7 9.1 14.9 8.4C15.1 7.7 15.1 7 14.9 6.3C14.7 5.6 14.3 5 13.8 4.6C13.3 4.2 12.7 4 12 4ZM12 12.7L10.2 13.9C9.7 14.3 9.3 14.9 9.1 15.6C8.9 16.3 8.9 17 9.1 17.7C9.3 18.4 9.7 19 10.2 19.4C10.7 19.8 11.3 20 12 20C12.7 20 13.3 19.8 13.8 19.4C14.3 19 14.7 18.4 14.9 17.7C15.1 17 15.1 16.3 14.9 15.6C14.7 14.9 14.3 14.3 13.8 13.9L12 12.7Z" fill="#3776AB"/>
  <circle cx="10.5" cy="7.5" r="1" fill="#FFD43B"/>
  <circle cx="13.5" cy="16.5" r="1" fill="#FFD43B"/>
</svg>