<svg viewBox="0 0 24 24" fill="none" xmlns="http://www.w3.org/2000/svg">
  <!-- Apache Spark - Big Data Processing Engine -->
  
  <!-- Gradient definitions -->
  <defs>
    <linearGradient id="sparkGradient" x1="0%" y1="0%" x2="100%" y2="100%">
      <stop offset="0%" style="stop-color:#FF6C2C;stop-opacity:1" />
      <stop offset="50%" style="stop-color:#E25A1C;stop-opacity:1" />
      <stop offset="100%" style="stop-color:#CC4400;stop-opacity:1" />
    </linearGradient>
    <radialGradient id="nodeGradient" cx="50%" cy="50%" r="50%">
      <stop offset="0%" style="stop-color:#FFB366;stop-opacity:1" />
      <stop offset="100%" style="stop-color:#E25A1C;stop-opacity:1" />
    </radialGradient>
  </defs>
  
  <!-- Main lightning/spark shape -->
  <path d="M12 2 L8 9 L11 9 L9 15 L16 8 L13 8 L15 2 Z" fill="url(#sparkGradient)" stroke="#FFFFFF" stroke-width="0.5"/>
  
  <!-- Distributed computing nodes around the spark -->
  <!-- Top cluster -->
  <circle cx="7" cy="5" r="1.2" fill="url(#nodeGradient)"/>
  <circle cx="17" cy="5" r="1.2" fill="url(#nodeGradient)"/>
  
  <!-- Middle cluster -->
  <circle cx="4" cy="12" r="1.5" fill="url(#nodeGradient)"/>
  <circle cx="20" cy="12" r="1.5" fill="url(#nodeGradient)"/>
  
  <!-- Bottom cluster -->
  <circle cx="7" cy="19" r="1.2" fill="url(#nodeGradient)"/>
  <circle cx="17" cy="19" r="1.2" fill="url(#nodeGradient)"/>
  
  <!-- Connection lines (representing distributed processing) -->
  <path d="M7 5 Q12 8 4 12" stroke="#FF9955" stroke-width="1" fill="none" opacity="0.6"/>
  <path d="M17 5 Q12 8 20 12" stroke="#FF9955" stroke-width="1" fill="none" opacity="0.6"/>
  <path d="M4 12 Q12 15 7 19" stroke="#FF9955" stroke-width="1" fill="none" opacity="0.6"/>
  <path d="M20 12 Q12 15 17 19" stroke="#FF9955" stroke-width="1" fill="none" opacity="0.6"/>
  
  <!-- Central processing core -->
  <circle cx="12" cy="12" r="2" fill="#FFFFFF" opacity="0.9"/>
  <circle cx="12" cy="12" r="1.5" fill="url(#sparkGradient)"/>
  
  <!-- Energy particles -->
  <circle cx="6" cy="8" r="0.3" fill="#FFD700"/>
  <circle cx="18" cy="8" r="0.3" fill="#FFD700"/>
  <circle cx="6" cy="16" r="0.3" fill="#FFD700"/>
  <circle cx="18" cy="16" r="0.3" fill="#FFD700"/>
</svg>